<mxfile host="Electron" agent="Mozilla/5.0 (Macintosh; Intel Mac OS X 10_15_7) AppleWebKit/537.36 (KHTML, like Gecko) draw.io/26.0.9 Chrome/128.0.6613.186 Electron/32.2.5 Safari/537.36" version="26.0.9" pages="4">
  <diagram id="C5RBs43oDa-KdzZeNtuy" name="Page-1">
    <mxGraphModel dx="2533" dy="2022" grid="1" gridSize="10" guides="1" tooltips="1" connect="1" arrows="1" fold="1" page="1" pageScale="1" pageWidth="827" pageHeight="1169" background="#66FFFF" math="0" shadow="0">
      <root>
        <mxCell id="WIyWlLk6GJQsqaUBKTNV-0" />
        <mxCell id="WIyWlLk6GJQsqaUBKTNV-1" parent="WIyWlLk6GJQsqaUBKTNV-0" />
        <mxCell id="aIQGB1RSID6Y3Y14vBlt-33" value="" style="edgeStyle=orthogonalEdgeStyle;rounded=0;orthogonalLoop=1;jettySize=auto;html=1;" parent="WIyWlLk6GJQsqaUBKTNV-1" source="CSUC1CyiqfIwQlM0KYeW-0" target="aIQGB1RSID6Y3Y14vBlt-2" edge="1">
          <mxGeometry relative="1" as="geometry" />
        </mxCell>
        <mxCell id="CSUC1CyiqfIwQlM0KYeW-0" value="START" style="ellipse;whiteSpace=wrap;html=1;" parent="WIyWlLk6GJQsqaUBKTNV-1" vertex="1">
          <mxGeometry x="360" y="-1030" width="120" height="80" as="geometry" />
        </mxCell>
        <mxCell id="CSUC1CyiqfIwQlM0KYeW-2" value="&lt;font style=&quot;font-size: 18px;&quot;&gt;Higher or Lower Program&lt;/font&gt;" style="text;html=1;align=center;verticalAlign=middle;whiteSpace=wrap;rounded=0;" parent="WIyWlLk6GJQsqaUBKTNV-1" vertex="1">
          <mxGeometry x="20" y="-1020" width="220" height="60" as="geometry" />
        </mxCell>
        <mxCell id="aIQGB1RSID6Y3Y14vBlt-35" value="" style="edgeStyle=orthogonalEdgeStyle;rounded=0;orthogonalLoop=1;jettySize=auto;html=1;" parent="WIyWlLk6GJQsqaUBKTNV-1" source="aIQGB1RSID6Y3Y14vBlt-2" target="aIQGB1RSID6Y3Y14vBlt-34" edge="1">
          <mxGeometry relative="1" as="geometry" />
        </mxCell>
        <mxCell id="aIQGB1RSID6Y3Y14vBlt-2" value="Set GAME_LOGO to&lt;div&gt;game ASCII art&lt;/div&gt;" style="rounded=1;whiteSpace=wrap;html=1;" parent="WIyWlLk6GJQsqaUBKTNV-1" vertex="1">
          <mxGeometry x="320" y="-900" width="200" height="60" as="geometry" />
        </mxCell>
        <mxCell id="aIQGB1RSID6Y3Y14vBlt-13" value="" style="edgeStyle=orthogonalEdgeStyle;rounded=0;orthogonalLoop=1;jettySize=auto;html=1;" parent="WIyWlLk6GJQsqaUBKTNV-1" source="aIQGB1RSID6Y3Y14vBlt-4" target="aIQGB1RSID6Y3Y14vBlt-10" edge="1">
          <mxGeometry relative="1" as="geometry" />
        </mxCell>
        <mxCell id="aIQGB1RSID6Y3Y14vBlt-4" value="Print GAME_LOGO&lt;div&gt;to the console&lt;/div&gt;" style="rounded=1;whiteSpace=wrap;html=1;" parent="WIyWlLk6GJQsqaUBKTNV-1" vertex="1">
          <mxGeometry x="320" y="-410" width="200" height="60" as="geometry" />
        </mxCell>
        <mxCell id="A01O1QJwSkyAS3Y7OahL-4" value="" style="edgeStyle=orthogonalEdgeStyle;rounded=0;orthogonalLoop=1;jettySize=auto;html=1;" edge="1" parent="WIyWlLk6GJQsqaUBKTNV-1" source="aIQGB1RSID6Y3Y14vBlt-7" target="A01O1QJwSkyAS3Y7OahL-3">
          <mxGeometry relative="1" as="geometry" />
        </mxCell>
        <mxCell id="aIQGB1RSID6Y3Y14vBlt-7" value="Set GAME_DATA to game data" style="rounded=1;whiteSpace=wrap;html=1;" parent="WIyWlLk6GJQsqaUBKTNV-1" vertex="1">
          <mxGeometry x="320" y="-680" width="200" height="60" as="geometry" />
        </mxCell>
        <mxCell id="aIQGB1RSID6Y3Y14vBlt-15" value="" style="edgeStyle=orthogonalEdgeStyle;rounded=0;orthogonalLoop=1;jettySize=auto;html=1;" parent="WIyWlLk6GJQsqaUBKTNV-1" source="aIQGB1RSID6Y3Y14vBlt-10" target="aIQGB1RSID6Y3Y14vBlt-14" edge="1">
          <mxGeometry relative="1" as="geometry" />
        </mxCell>
        <mxCell id="aIQGB1RSID6Y3Y14vBlt-10" value="Set the collection BRANDS_ALREADY_SELECTED&lt;div&gt;&amp;nbsp;to empty&lt;/div&gt;" style="rounded=1;whiteSpace=wrap;html=1;" parent="WIyWlLk6GJQsqaUBKTNV-1" vertex="1">
          <mxGeometry x="320" y="-300" width="200" height="70" as="geometry" />
        </mxCell>
        <mxCell id="aIQGB1RSID6Y3Y14vBlt-79" value="" style="edgeStyle=orthogonalEdgeStyle;rounded=0;orthogonalLoop=1;jettySize=auto;html=1;" parent="WIyWlLk6GJQsqaUBKTNV-1" source="aIQGB1RSID6Y3Y14vBlt-14" target="aIQGB1RSID6Y3Y14vBlt-78" edge="1">
          <mxGeometry relative="1" as="geometry" />
        </mxCell>
        <mxCell id="aIQGB1RSID6Y3Y14vBlt-14" value="Set GAME_IS_IN_PLAY to TRUE" style="rounded=1;whiteSpace=wrap;html=1;" parent="WIyWlLk6GJQsqaUBKTNV-1" vertex="1">
          <mxGeometry x="320" y="-180" width="200" height="60" as="geometry" />
        </mxCell>
        <mxCell id="qYujgTQVO7epk3fZShRi-16" value="" style="edgeStyle=orthogonalEdgeStyle;rounded=0;orthogonalLoop=1;jettySize=auto;html=1;" parent="WIyWlLk6GJQsqaUBKTNV-1" source="aIQGB1RSID6Y3Y14vBlt-16" target="qYujgTQVO7epk3fZShRi-15" edge="1">
          <mxGeometry relative="1" as="geometry" />
        </mxCell>
        <mxCell id="aIQGB1RSID6Y3Y14vBlt-16" value="Set BRAND_A _PROFILE to a random brand profile from the collection GAME_DATA" style="rounded=1;whiteSpace=wrap;html=1;" parent="WIyWlLk6GJQsqaUBKTNV-1" vertex="1">
          <mxGeometry x="320" y="40" width="200" height="90" as="geometry" />
        </mxCell>
        <mxCell id="A01O1QJwSkyAS3Y7OahL-27" value="" style="edgeStyle=orthogonalEdgeStyle;rounded=0;orthogonalLoop=1;jettySize=auto;html=1;" edge="1" parent="WIyWlLk6GJQsqaUBKTNV-1" source="aIQGB1RSID6Y3Y14vBlt-18" target="aIQGB1RSID6Y3Y14vBlt-19">
          <mxGeometry relative="1" as="geometry" />
        </mxCell>
        <mxCell id="aIQGB1RSID6Y3Y14vBlt-18" value="Set BRAND_B_PROFILE to a random brand profile from the collection GAME_DATA" style="rounded=1;whiteSpace=wrap;html=1;" parent="WIyWlLk6GJQsqaUBKTNV-1" vertex="1">
          <mxGeometry x="320" y="710" width="200" height="90" as="geometry" />
        </mxCell>
        <mxCell id="pnx911FjVlsZASqlH36z-44" value="" style="edgeStyle=orthogonalEdgeStyle;rounded=0;orthogonalLoop=1;jettySize=auto;html=1;" parent="WIyWlLk6GJQsqaUBKTNV-1" source="aIQGB1RSID6Y3Y14vBlt-19" target="pnx911FjVlsZASqlH36z-43" edge="1">
          <mxGeometry relative="1" as="geometry" />
        </mxCell>
        <mxCell id="A01O1QJwSkyAS3Y7OahL-19" value="NO" style="edgeLabel;html=1;align=center;verticalAlign=middle;resizable=0;points=[];" vertex="1" connectable="0" parent="pnx911FjVlsZASqlH36z-44">
          <mxGeometry x="-0.1086" y="2" relative="1" as="geometry">
            <mxPoint y="-1" as="offset" />
          </mxGeometry>
        </mxCell>
        <mxCell id="A01O1QJwSkyAS3Y7OahL-24" style="edgeStyle=orthogonalEdgeStyle;rounded=0;orthogonalLoop=1;jettySize=auto;html=1;" edge="1" parent="WIyWlLk6GJQsqaUBKTNV-1" source="aIQGB1RSID6Y3Y14vBlt-19">
          <mxGeometry relative="1" as="geometry">
            <mxPoint x="400" y="3530" as="targetPoint" />
            <Array as="points">
              <mxPoint x="-580" y="920" />
            </Array>
          </mxGeometry>
        </mxCell>
        <mxCell id="A01O1QJwSkyAS3Y7OahL-25" value="YES" style="edgeLabel;html=1;align=center;verticalAlign=middle;resizable=0;points=[];" vertex="1" connectable="0" parent="A01O1QJwSkyAS3Y7OahL-24">
          <mxGeometry x="-0.9784" y="-1" relative="1" as="geometry">
            <mxPoint x="-1" as="offset" />
          </mxGeometry>
        </mxCell>
        <mxCell id="aIQGB1RSID6Y3Y14vBlt-19" value="Is&lt;div&gt;BRAND_B_PROFILE&lt;/div&gt;&lt;div&gt;equal to&lt;/div&gt;&lt;div&gt;BRAND_A_PROFILE?&lt;/div&gt;" style="rhombus;whiteSpace=wrap;html=1;" parent="WIyWlLk6GJQsqaUBKTNV-1" vertex="1">
          <mxGeometry x="274" y="840" width="290" height="160" as="geometry" />
        </mxCell>
        <mxCell id="aIQGB1RSID6Y3Y14vBlt-32" value="" style="edgeStyle=orthogonalEdgeStyle;rounded=0;orthogonalLoop=1;jettySize=auto;html=1;" parent="WIyWlLk6GJQsqaUBKTNV-1" source="aIQGB1RSID6Y3Y14vBlt-29" target="aIQGB1RSID6Y3Y14vBlt-31" edge="1">
          <mxGeometry relative="1" as="geometry" />
        </mxCell>
        <mxCell id="aIQGB1RSID6Y3Y14vBlt-29" value="Print BRAND_A_PROFILE name, description and country to the console&amp;nbsp;" style="rounded=1;whiteSpace=wrap;html=1;" parent="WIyWlLk6GJQsqaUBKTNV-1" vertex="1">
          <mxGeometry x="320" y="1430" width="200" height="90" as="geometry" />
        </mxCell>
        <mxCell id="aIQGB1RSID6Y3Y14vBlt-38" value="" style="edgeStyle=orthogonalEdgeStyle;rounded=0;orthogonalLoop=1;jettySize=auto;html=1;" parent="WIyWlLk6GJQsqaUBKTNV-1" source="aIQGB1RSID6Y3Y14vBlt-31" target="aIQGB1RSID6Y3Y14vBlt-37" edge="1">
          <mxGeometry relative="1" as="geometry" />
        </mxCell>
        <mxCell id="aIQGB1RSID6Y3Y14vBlt-31" value="Print COMPARE_LOGO&lt;div&gt;to the console&lt;/div&gt;" style="rounded=1;whiteSpace=wrap;html=1;" parent="WIyWlLk6GJQsqaUBKTNV-1" vertex="1">
          <mxGeometry x="320" y="1570" width="200" height="90" as="geometry" />
        </mxCell>
        <mxCell id="aIQGB1RSID6Y3Y14vBlt-36" value="" style="edgeStyle=orthogonalEdgeStyle;rounded=0;orthogonalLoop=1;jettySize=auto;html=1;" parent="WIyWlLk6GJQsqaUBKTNV-1" source="aIQGB1RSID6Y3Y14vBlt-34" target="aIQGB1RSID6Y3Y14vBlt-7" edge="1">
          <mxGeometry relative="1" as="geometry" />
        </mxCell>
        <mxCell id="aIQGB1RSID6Y3Y14vBlt-34" value="Set COMPARE_LOGO to&lt;div&gt;compare ASCII art&lt;/div&gt;" style="rounded=1;whiteSpace=wrap;html=1;" parent="WIyWlLk6GJQsqaUBKTNV-1" vertex="1">
          <mxGeometry x="320" y="-790" width="200" height="60" as="geometry" />
        </mxCell>
        <mxCell id="aIQGB1RSID6Y3Y14vBlt-49" value="" style="edgeStyle=orthogonalEdgeStyle;rounded=0;orthogonalLoop=1;jettySize=auto;html=1;" parent="WIyWlLk6GJQsqaUBKTNV-1" source="aIQGB1RSID6Y3Y14vBlt-37" target="aIQGB1RSID6Y3Y14vBlt-41" edge="1">
          <mxGeometry relative="1" as="geometry" />
        </mxCell>
        <mxCell id="aIQGB1RSID6Y3Y14vBlt-37" value="Print BRAND_B_PROFILE name, description and country to the console&amp;nbsp;" style="rounded=1;whiteSpace=wrap;html=1;" parent="WIyWlLk6GJQsqaUBKTNV-1" vertex="1">
          <mxGeometry x="320" y="1709" width="200" height="90" as="geometry" />
        </mxCell>
        <mxCell id="aIQGB1RSID6Y3Y14vBlt-44" value="" style="edgeStyle=orthogonalEdgeStyle;rounded=0;orthogonalLoop=1;jettySize=auto;html=1;" parent="WIyWlLk6GJQsqaUBKTNV-1" source="aIQGB1RSID6Y3Y14vBlt-39" target="aIQGB1RSID6Y3Y14vBlt-43" edge="1">
          <mxGeometry relative="1" as="geometry" />
        </mxCell>
        <mxCell id="aIQGB1RSID6Y3Y14vBlt-39" value="Set USER_CHOICE to either &quot;A&quot; or &quot;B&quot; from asking user who has more followers" style="rounded=1;whiteSpace=wrap;html=1;" parent="WIyWlLk6GJQsqaUBKTNV-1" vertex="1">
          <mxGeometry x="320" y="2333" width="200" height="90" as="geometry" />
        </mxCell>
        <mxCell id="aIQGB1RSID6Y3Y14vBlt-50" value="" style="edgeStyle=orthogonalEdgeStyle;rounded=0;orthogonalLoop=1;jettySize=auto;html=1;" parent="WIyWlLk6GJQsqaUBKTNV-1" source="aIQGB1RSID6Y3Y14vBlt-41" target="aIQGB1RSID6Y3Y14vBlt-42" edge="1">
          <mxGeometry relative="1" as="geometry" />
        </mxCell>
        <mxCell id="aIQGB1RSID6Y3Y14vBlt-41" value="Set A_FOLLOWER_COUNT&lt;div&gt;to the follower count of BRAND_A_PROFILE&lt;/div&gt;" style="rounded=1;whiteSpace=wrap;html=1;" parent="WIyWlLk6GJQsqaUBKTNV-1" vertex="1">
          <mxGeometry x="320" y="1850" width="200" height="110" as="geometry" />
        </mxCell>
        <mxCell id="aIQGB1RSID6Y3Y14vBlt-51" value="" style="edgeStyle=orthogonalEdgeStyle;rounded=0;orthogonalLoop=1;jettySize=auto;html=1;" parent="WIyWlLk6GJQsqaUBKTNV-1" source="aIQGB1RSID6Y3Y14vBlt-42" target="aIQGB1RSID6Y3Y14vBlt-39" edge="1">
          <mxGeometry relative="1" as="geometry" />
        </mxCell>
        <mxCell id="aIQGB1RSID6Y3Y14vBlt-42" value="Set B_FOLLOWER_COUNT&lt;div&gt;to the follower count of BRAND_B_PROFILE&lt;/div&gt;" style="rounded=1;whiteSpace=wrap;html=1;" parent="WIyWlLk6GJQsqaUBKTNV-1" vertex="1">
          <mxGeometry x="320" y="2010" width="200" height="110" as="geometry" />
        </mxCell>
        <mxCell id="aIQGB1RSID6Y3Y14vBlt-46" value="" style="edgeStyle=orthogonalEdgeStyle;rounded=0;orthogonalLoop=1;jettySize=auto;html=1;entryX=0.5;entryY=1;entryDx=0;entryDy=0;" parent="WIyWlLk6GJQsqaUBKTNV-1" source="aIQGB1RSID6Y3Y14vBlt-43" target="aIQGB1RSID6Y3Y14vBlt-45" edge="1">
          <mxGeometry relative="1" as="geometry">
            <mxPoint x="240" y="2553" as="targetPoint" />
          </mxGeometry>
        </mxCell>
        <mxCell id="aIQGB1RSID6Y3Y14vBlt-47" value="NO" style="edgeLabel;html=1;align=center;verticalAlign=middle;resizable=0;points=[];" parent="aIQGB1RSID6Y3Y14vBlt-46" vertex="1" connectable="0">
          <mxGeometry x="-0.3538" relative="1" as="geometry">
            <mxPoint as="offset" />
          </mxGeometry>
        </mxCell>
        <mxCell id="aIQGB1RSID6Y3Y14vBlt-54" value="" style="edgeStyle=orthogonalEdgeStyle;rounded=0;orthogonalLoop=1;jettySize=auto;html=1;" parent="WIyWlLk6GJQsqaUBKTNV-1" source="aIQGB1RSID6Y3Y14vBlt-43" edge="1">
          <mxGeometry relative="1" as="geometry">
            <mxPoint x="420" y="2683" as="targetPoint" />
          </mxGeometry>
        </mxCell>
        <mxCell id="aIQGB1RSID6Y3Y14vBlt-55" value="YES" style="edgeLabel;html=1;align=center;verticalAlign=middle;resizable=0;points=[];" parent="aIQGB1RSID6Y3Y14vBlt-54" vertex="1" connectable="0">
          <mxGeometry x="-0.14" y="1" relative="1" as="geometry">
            <mxPoint as="offset" />
          </mxGeometry>
        </mxCell>
        <mxCell id="aIQGB1RSID6Y3Y14vBlt-43" value="Is&lt;div&gt;USER_CHOICE&lt;/div&gt;&lt;div&gt;equal to &quot;A&quot; or &quot;B&quot;?&lt;/div&gt;" style="rhombus;whiteSpace=wrap;html=1;" parent="WIyWlLk6GJQsqaUBKTNV-1" vertex="1">
          <mxGeometry x="305" y="2473" width="230" height="160" as="geometry" />
        </mxCell>
        <mxCell id="pnx911FjVlsZASqlH36z-50" style="edgeStyle=orthogonalEdgeStyle;rounded=0;orthogonalLoop=1;jettySize=auto;html=1;exitX=0.5;exitY=0;exitDx=0;exitDy=0;" parent="WIyWlLk6GJQsqaUBKTNV-1" source="aIQGB1RSID6Y3Y14vBlt-45" edge="1">
          <mxGeometry relative="1" as="geometry">
            <mxPoint x="410" y="2310" as="targetPoint" />
            <mxPoint x="140" y="2353" as="sourcePoint" />
            <Array as="points">
              <mxPoint x="140" y="2310" />
            </Array>
          </mxGeometry>
        </mxCell>
        <mxCell id="aIQGB1RSID6Y3Y14vBlt-45" value="Print message to the console&lt;div&gt;saying the user has made an&lt;/div&gt;&lt;div&gt;invalid choice&amp;nbsp;&lt;/div&gt;" style="rounded=1;whiteSpace=wrap;html=1;" parent="WIyWlLk6GJQsqaUBKTNV-1" vertex="1">
          <mxGeometry x="40" y="2333" width="200" height="90" as="geometry" />
        </mxCell>
        <mxCell id="pnx911FjVlsZASqlH36z-0" value="" style="edgeStyle=orthogonalEdgeStyle;rounded=0;orthogonalLoop=1;jettySize=auto;html=1;" parent="WIyWlLk6GJQsqaUBKTNV-1" source="aIQGB1RSID6Y3Y14vBlt-56" target="aIQGB1RSID6Y3Y14vBlt-60" edge="1">
          <mxGeometry relative="1" as="geometry" />
        </mxCell>
        <mxCell id="pnx911FjVlsZASqlH36z-1" value="YES" style="edgeLabel;html=1;align=center;verticalAlign=middle;resizable=0;points=[];" parent="pnx911FjVlsZASqlH36z-0" vertex="1" connectable="0">
          <mxGeometry x="-0.2635" y="-2" relative="1" as="geometry">
            <mxPoint as="offset" />
          </mxGeometry>
        </mxCell>
        <mxCell id="pnx911FjVlsZASqlH36z-5" value="" style="edgeStyle=orthogonalEdgeStyle;rounded=0;orthogonalLoop=1;jettySize=auto;html=1;" parent="WIyWlLk6GJQsqaUBKTNV-1" source="aIQGB1RSID6Y3Y14vBlt-56" target="pnx911FjVlsZASqlH36z-4" edge="1">
          <mxGeometry relative="1" as="geometry" />
        </mxCell>
        <mxCell id="pnx911FjVlsZASqlH36z-6" value="NO" style="edgeLabel;html=1;align=center;verticalAlign=middle;resizable=0;points=[];" parent="pnx911FjVlsZASqlH36z-5" vertex="1" connectable="0">
          <mxGeometry x="-0.1553" relative="1" as="geometry">
            <mxPoint as="offset" />
          </mxGeometry>
        </mxCell>
        <mxCell id="aIQGB1RSID6Y3Y14vBlt-56" value="Is&lt;div&gt;USER_CHOICE&lt;/div&gt;&lt;div&gt;equal to &quot;A&quot;?&lt;/div&gt;" style="rhombus;whiteSpace=wrap;html=1;" parent="WIyWlLk6GJQsqaUBKTNV-1" vertex="1">
          <mxGeometry x="305" y="2683" width="230" height="160" as="geometry" />
        </mxCell>
        <mxCell id="pnx911FjVlsZASqlH36z-2" value="" style="edgeStyle=orthogonalEdgeStyle;rounded=0;orthogonalLoop=1;jettySize=auto;html=1;" parent="WIyWlLk6GJQsqaUBKTNV-1" source="aIQGB1RSID6Y3Y14vBlt-60" target="aIQGB1RSID6Y3Y14vBlt-68" edge="1">
          <mxGeometry relative="1" as="geometry" />
        </mxCell>
        <mxCell id="pnx911FjVlsZASqlH36z-3" value="YES" style="edgeLabel;html=1;align=center;verticalAlign=middle;resizable=0;points=[];" parent="pnx911FjVlsZASqlH36z-2" vertex="1" connectable="0">
          <mxGeometry x="-0.2635" y="3" relative="1" as="geometry">
            <mxPoint as="offset" />
          </mxGeometry>
        </mxCell>
        <mxCell id="zGzyHBWayyrm-eJlsxDx-2" value="" style="edgeStyle=orthogonalEdgeStyle;rounded=0;orthogonalLoop=1;jettySize=auto;html=1;" parent="WIyWlLk6GJQsqaUBKTNV-1" source="aIQGB1RSID6Y3Y14vBlt-60" target="zGzyHBWayyrm-eJlsxDx-1" edge="1">
          <mxGeometry relative="1" as="geometry" />
        </mxCell>
        <mxCell id="zGzyHBWayyrm-eJlsxDx-3" value="NO" style="edgeLabel;html=1;align=center;verticalAlign=middle;resizable=0;points=[];" parent="zGzyHBWayyrm-eJlsxDx-2" vertex="1" connectable="0">
          <mxGeometry x="-0.181" y="1" relative="1" as="geometry">
            <mxPoint as="offset" />
          </mxGeometry>
        </mxCell>
        <mxCell id="aIQGB1RSID6Y3Y14vBlt-60" value="Is&lt;div&gt;A_FOLLOWER_COUNT&lt;/div&gt;&lt;div&gt;greater than&lt;/div&gt;&lt;div&gt;B_FOLLOWER_COUNT?&lt;/div&gt;" style="rhombus;whiteSpace=wrap;html=1;" parent="WIyWlLk6GJQsqaUBKTNV-1" vertex="1">
          <mxGeometry x="305" y="2893" width="230" height="190" as="geometry" />
        </mxCell>
        <mxCell id="pnx911FjVlsZASqlH36z-24" value="" style="edgeStyle=orthogonalEdgeStyle;rounded=0;orthogonalLoop=1;jettySize=auto;html=1;" parent="WIyWlLk6GJQsqaUBKTNV-1" source="aIQGB1RSID6Y3Y14vBlt-68" target="pnx911FjVlsZASqlH36z-23" edge="1">
          <mxGeometry relative="1" as="geometry" />
        </mxCell>
        <mxCell id="aIQGB1RSID6Y3Y14vBlt-68" value="Set USER_SCORE to USER_SCORE + 1&lt;div&gt;&lt;br&gt;&lt;/div&gt;&lt;div&gt;Print USER_SCORE to the console&lt;/div&gt;" style="rounded=1;whiteSpace=wrap;html=1;" parent="WIyWlLk6GJQsqaUBKTNV-1" vertex="1">
          <mxGeometry x="320" y="3230" width="200" height="90" as="geometry" />
        </mxCell>
        <mxCell id="aIQGB1RSID6Y3Y14vBlt-80" style="edgeStyle=orthogonalEdgeStyle;rounded=0;orthogonalLoop=1;jettySize=auto;html=1;entryX=0.5;entryY=0;entryDx=0;entryDy=0;" parent="WIyWlLk6GJQsqaUBKTNV-1" source="aIQGB1RSID6Y3Y14vBlt-78" target="aIQGB1RSID6Y3Y14vBlt-16" edge="1">
          <mxGeometry relative="1" as="geometry" />
        </mxCell>
        <mxCell id="aIQGB1RSID6Y3Y14vBlt-78" value="Set USER_SCORE to 0" style="rounded=1;whiteSpace=wrap;html=1;" parent="WIyWlLk6GJQsqaUBKTNV-1" vertex="1">
          <mxGeometry x="320" y="-70" width="200" height="60" as="geometry" />
        </mxCell>
        <mxCell id="zGzyHBWayyrm-eJlsxDx-9" style="edgeStyle=orthogonalEdgeStyle;rounded=0;orthogonalLoop=1;jettySize=auto;html=1;entryX=1;entryY=0.5;entryDx=0;entryDy=0;" parent="WIyWlLk6GJQsqaUBKTNV-1" source="pnx911FjVlsZASqlH36z-4" target="zGzyHBWayyrm-eJlsxDx-8" edge="1">
          <mxGeometry relative="1" as="geometry" />
        </mxCell>
        <mxCell id="zGzyHBWayyrm-eJlsxDx-10" value="NO" style="edgeLabel;html=1;align=center;verticalAlign=middle;resizable=0;points=[];" parent="zGzyHBWayyrm-eJlsxDx-9" vertex="1" connectable="0">
          <mxGeometry x="-0.0947" y="-1" relative="1" as="geometry">
            <mxPoint as="offset" />
          </mxGeometry>
        </mxCell>
        <mxCell id="A01O1QJwSkyAS3Y7OahL-18" style="edgeStyle=orthogonalEdgeStyle;rounded=0;orthogonalLoop=1;jettySize=auto;html=1;entryX=0.5;entryY=0;entryDx=0;entryDy=0;" edge="1" parent="WIyWlLk6GJQsqaUBKTNV-1" source="pnx911FjVlsZASqlH36z-4" target="pnx911FjVlsZASqlH36z-33">
          <mxGeometry relative="1" as="geometry" />
        </mxCell>
        <mxCell id="pnx911FjVlsZASqlH36z-4" value="Is&lt;div&gt;B_FOLLOWER_COUNT&lt;/div&gt;&lt;div&gt;greater than&lt;/div&gt;&lt;div&gt;A_FOLLOWER_COUNT?&lt;/div&gt;" style="rhombus;whiteSpace=wrap;html=1;" parent="WIyWlLk6GJQsqaUBKTNV-1" vertex="1">
          <mxGeometry x="25" y="2683" width="230" height="160" as="geometry" />
        </mxCell>
        <mxCell id="pnx911FjVlsZASqlH36z-12" value="END" style="ellipse;whiteSpace=wrap;html=1;" parent="WIyWlLk6GJQsqaUBKTNV-1" vertex="1">
          <mxGeometry x="360" y="3810" width="120" height="80" as="geometry" />
        </mxCell>
        <mxCell id="pnx911FjVlsZASqlH36z-31" style="edgeStyle=orthogonalEdgeStyle;rounded=0;orthogonalLoop=1;jettySize=auto;html=1;exitX=0.5;exitY=1;exitDx=0;exitDy=0;" parent="WIyWlLk6GJQsqaUBKTNV-1" source="pnx911FjVlsZASqlH36z-19" edge="1">
          <mxGeometry relative="1" as="geometry">
            <mxPoint x="414" y="3367" as="targetPoint" />
            <mxPoint x="-159" y="3083" as="sourcePoint" />
            <Array as="points">
              <mxPoint x="-200" y="3367" />
            </Array>
          </mxGeometry>
        </mxCell>
        <mxCell id="pnx911FjVlsZASqlH36z-19" value="Set GAME_IS_IN_PLAY to FALSE" style="rounded=1;whiteSpace=wrap;html=1;" parent="WIyWlLk6GJQsqaUBKTNV-1" vertex="1">
          <mxGeometry x="-300" y="3030" width="200" height="90" as="geometry" />
        </mxCell>
        <mxCell id="pnx911FjVlsZASqlH36z-51" style="edgeStyle=orthogonalEdgeStyle;rounded=0;orthogonalLoop=1;jettySize=auto;html=1;exitX=0.5;exitY=1;exitDx=0;exitDy=0;" parent="WIyWlLk6GJQsqaUBKTNV-1" edge="1">
          <mxGeometry relative="1" as="geometry">
            <mxPoint x="430" y="3366" as="targetPoint" />
            <mxPoint x="720" y="3322" as="sourcePoint" />
            <Array as="points">
              <mxPoint x="720" y="3366" />
            </Array>
          </mxGeometry>
        </mxCell>
        <mxCell id="pnx911FjVlsZASqlH36z-21" value="Set GAME_IS_IN_PLAY to FALSE" style="rounded=1;whiteSpace=wrap;html=1;" parent="WIyWlLk6GJQsqaUBKTNV-1" vertex="1">
          <mxGeometry x="620" y="3230" width="200" height="90" as="geometry" />
        </mxCell>
        <mxCell id="pnx911FjVlsZASqlH36z-25" style="edgeStyle=orthogonalEdgeStyle;rounded=0;orthogonalLoop=1;jettySize=auto;html=1;exitX=1;exitY=0.5;exitDx=0;exitDy=0;" parent="WIyWlLk6GJQsqaUBKTNV-1" source="pnx911FjVlsZASqlH36z-23" edge="1">
          <mxGeometry relative="1" as="geometry">
            <mxPoint x="430" y="310" as="targetPoint" />
            <mxPoint x="555" y="3695" as="sourcePoint" />
            <Array as="points">
              <mxPoint x="1120" y="3665" />
              <mxPoint x="1120" y="310" />
            </Array>
          </mxGeometry>
        </mxCell>
        <mxCell id="pnx911FjVlsZASqlH36z-27" value="YES" style="edgeLabel;html=1;align=center;verticalAlign=middle;resizable=0;points=[];" parent="pnx911FjVlsZASqlH36z-25" vertex="1" connectable="0">
          <mxGeometry x="0.2328" relative="1" as="geometry">
            <mxPoint as="offset" />
          </mxGeometry>
        </mxCell>
        <mxCell id="pnx911FjVlsZASqlH36z-30" value="YES" style="edgeLabel;html=1;align=center;verticalAlign=middle;resizable=0;points=[];" parent="pnx911FjVlsZASqlH36z-25" vertex="1" connectable="0">
          <mxGeometry x="-0.875" y="3" relative="1" as="geometry">
            <mxPoint x="1" as="offset" />
          </mxGeometry>
        </mxCell>
        <mxCell id="pnx911FjVlsZASqlH36z-28" value="" style="edgeStyle=orthogonalEdgeStyle;rounded=0;orthogonalLoop=1;jettySize=auto;html=1;" parent="WIyWlLk6GJQsqaUBKTNV-1" source="pnx911FjVlsZASqlH36z-23" target="pnx911FjVlsZASqlH36z-12" edge="1">
          <mxGeometry relative="1" as="geometry" />
        </mxCell>
        <mxCell id="pnx911FjVlsZASqlH36z-29" value="NO" style="edgeLabel;html=1;align=center;verticalAlign=middle;resizable=0;points=[];" parent="pnx911FjVlsZASqlH36z-28" vertex="1" connectable="0">
          <mxGeometry x="-0.2571" y="-4" relative="1" as="geometry">
            <mxPoint y="-1" as="offset" />
          </mxGeometry>
        </mxCell>
        <mxCell id="pnx911FjVlsZASqlH36z-23" value="Is&lt;div&gt;GAME_IS_IN_PLAY&lt;/div&gt;&lt;div&gt;equal to TRUE?&lt;/div&gt;" style="rhombus;whiteSpace=wrap;html=1;" parent="WIyWlLk6GJQsqaUBKTNV-1" vertex="1">
          <mxGeometry x="305" y="3570" width="230" height="190" as="geometry" />
        </mxCell>
        <mxCell id="zGzyHBWayyrm-eJlsxDx-0" style="edgeStyle=orthogonalEdgeStyle;rounded=0;orthogonalLoop=1;jettySize=auto;html=1;" parent="WIyWlLk6GJQsqaUBKTNV-1" source="pnx911FjVlsZASqlH36z-33" edge="1">
          <mxGeometry relative="1" as="geometry">
            <mxPoint x="420" y="3190" as="targetPoint" />
            <Array as="points">
              <mxPoint x="140" y="3190" />
            </Array>
          </mxGeometry>
        </mxCell>
        <mxCell id="pnx911FjVlsZASqlH36z-33" value="Set&lt;div&gt;BRAND_A _PROFILE&lt;div&gt;t&lt;span style=&quot;background-color: transparent; color: light-dark(rgb(0, 0, 0), rgb(255, 255, 255));&quot;&gt;o&lt;/span&gt;&lt;/div&gt;&lt;/div&gt;&lt;div&gt;&lt;span style=&quot;background-color: transparent; color: light-dark(rgb(0, 0, 0), rgb(255, 255, 255));&quot;&gt;BRAND_B_PROFILE&lt;/span&gt;&lt;/div&gt;" style="rounded=1;whiteSpace=wrap;html=1;" parent="WIyWlLk6GJQsqaUBKTNV-1" vertex="1">
          <mxGeometry x="40" y="2960" width="200" height="90" as="geometry" />
        </mxCell>
        <mxCell id="A01O1QJwSkyAS3Y7OahL-12" value="" style="edgeStyle=orthogonalEdgeStyle;rounded=0;orthogonalLoop=1;jettySize=auto;html=1;" edge="1" parent="WIyWlLk6GJQsqaUBKTNV-1" source="pnx911FjVlsZASqlH36z-43" target="A01O1QJwSkyAS3Y7OahL-11">
          <mxGeometry relative="1" as="geometry" />
        </mxCell>
        <mxCell id="A01O1QJwSkyAS3Y7OahL-20" value="NO" style="edgeLabel;html=1;align=center;verticalAlign=middle;resizable=0;points=[];" vertex="1" connectable="0" parent="A01O1QJwSkyAS3Y7OahL-12">
          <mxGeometry x="-0.1184" y="-2" relative="1" as="geometry">
            <mxPoint y="-1" as="offset" />
          </mxGeometry>
        </mxCell>
        <mxCell id="A01O1QJwSkyAS3Y7OahL-23" style="edgeStyle=orthogonalEdgeStyle;rounded=0;orthogonalLoop=1;jettySize=auto;html=1;exitX=0;exitY=0.5;exitDx=0;exitDy=0;" edge="1" parent="WIyWlLk6GJQsqaUBKTNV-1" source="pnx911FjVlsZASqlH36z-43">
          <mxGeometry relative="1" as="geometry">
            <mxPoint x="400" y="3460" as="targetPoint" />
            <mxPoint x="130" y="1190" as="sourcePoint" />
            <Array as="points">
              <mxPoint x="-520" y="1145" />
              <mxPoint x="-520" y="3460" />
            </Array>
          </mxGeometry>
        </mxCell>
        <mxCell id="A01O1QJwSkyAS3Y7OahL-26" value="YES" style="edgeLabel;html=1;align=center;verticalAlign=middle;resizable=0;points=[];" vertex="1" connectable="0" parent="A01O1QJwSkyAS3Y7OahL-23">
          <mxGeometry x="-0.9538" y="4" relative="1" as="geometry">
            <mxPoint x="-1" as="offset" />
          </mxGeometry>
        </mxCell>
        <mxCell id="pnx911FjVlsZASqlH36z-43" value="Is&lt;div&gt;BRAND_B_PROFILE&lt;/div&gt;&lt;div&gt;&lt;span style=&quot;background-color: transparent; color: light-dark(rgb(0, 0, 0), rgb(255, 255, 255));&quot;&gt;in&lt;/span&gt;&lt;/div&gt;&lt;div&gt;&lt;span style=&quot;background-color: transparent; color: light-dark(rgb(0, 0, 0), rgb(255, 255, 255));&quot;&gt;BRANDS_ALREADY_SELECTED&lt;/span&gt;&lt;span style=&quot;background-color: transparent; color: light-dark(rgb(0, 0, 0), rgb(255, 255, 255));&quot;&gt;?&lt;/span&gt;&lt;/div&gt;" style="rhombus;whiteSpace=wrap;html=1;" parent="WIyWlLk6GJQsqaUBKTNV-1" vertex="1">
          <mxGeometry x="280" y="1050" width="280" height="190" as="geometry" />
        </mxCell>
        <mxCell id="zGzyHBWayyrm-eJlsxDx-4" style="edgeStyle=orthogonalEdgeStyle;rounded=0;orthogonalLoop=1;jettySize=auto;html=1;entryX=0.5;entryY=0;entryDx=0;entryDy=0;" parent="WIyWlLk6GJQsqaUBKTNV-1" source="zGzyHBWayyrm-eJlsxDx-1" target="pnx911FjVlsZASqlH36z-21" edge="1">
          <mxGeometry relative="1" as="geometry" />
        </mxCell>
        <mxCell id="zGzyHBWayyrm-eJlsxDx-5" value="NO" style="edgeLabel;html=1;align=center;verticalAlign=middle;resizable=0;points=[];" parent="zGzyHBWayyrm-eJlsxDx-4" vertex="1" connectable="0">
          <mxGeometry x="-0.2614" y="-1" relative="1" as="geometry">
            <mxPoint as="offset" />
          </mxGeometry>
        </mxCell>
        <mxCell id="zGzyHBWayyrm-eJlsxDx-22" style="edgeStyle=orthogonalEdgeStyle;rounded=0;orthogonalLoop=1;jettySize=auto;html=1;" parent="WIyWlLk6GJQsqaUBKTNV-1" source="zGzyHBWayyrm-eJlsxDx-1" edge="1">
          <mxGeometry relative="1" as="geometry">
            <mxPoint x="430" y="3430" as="targetPoint" />
            <Array as="points">
              <mxPoint x="1020" y="2988" />
              <mxPoint x="1020" y="3430" />
            </Array>
          </mxGeometry>
        </mxCell>
        <mxCell id="zGzyHBWayyrm-eJlsxDx-23" value="YES" style="edgeLabel;html=1;align=center;verticalAlign=middle;resizable=0;points=[];" parent="zGzyHBWayyrm-eJlsxDx-22" vertex="1" connectable="0">
          <mxGeometry x="-0.8321" relative="1" as="geometry">
            <mxPoint x="1" as="offset" />
          </mxGeometry>
        </mxCell>
        <mxCell id="zGzyHBWayyrm-eJlsxDx-1" value="Is&lt;div&gt;A_FOLLOWER_COUNT&lt;/div&gt;&lt;div&gt;&lt;span style=&quot;background-color: transparent; color: light-dark(rgb(0, 0, 0), rgb(255, 255, 255));&quot;&gt;equal to&lt;/span&gt;&lt;/div&gt;&lt;div&gt;&lt;span style=&quot;background-color: transparent; color: light-dark(rgb(0, 0, 0), rgb(255, 255, 255));&quot;&gt;B_FOLLOWER_COUNT?&lt;/span&gt;&lt;/div&gt;" style="rhombus;whiteSpace=wrap;html=1;" parent="WIyWlLk6GJQsqaUBKTNV-1" vertex="1">
          <mxGeometry x="605" y="2893" width="230" height="190" as="geometry" />
        </mxCell>
        <mxCell id="zGzyHBWayyrm-eJlsxDx-11" style="edgeStyle=orthogonalEdgeStyle;rounded=0;orthogonalLoop=1;jettySize=auto;html=1;entryX=0.5;entryY=0;entryDx=0;entryDy=0;" parent="WIyWlLk6GJQsqaUBKTNV-1" source="zGzyHBWayyrm-eJlsxDx-8" target="pnx911FjVlsZASqlH36z-19" edge="1">
          <mxGeometry relative="1" as="geometry" />
        </mxCell>
        <mxCell id="zGzyHBWayyrm-eJlsxDx-12" value="NO" style="edgeLabel;html=1;align=center;verticalAlign=middle;resizable=0;points=[];" parent="zGzyHBWayyrm-eJlsxDx-11" vertex="1" connectable="0">
          <mxGeometry x="-0.2155" relative="1" as="geometry">
            <mxPoint y="-1" as="offset" />
          </mxGeometry>
        </mxCell>
        <mxCell id="zGzyHBWayyrm-eJlsxDx-13" style="edgeStyle=orthogonalEdgeStyle;rounded=0;orthogonalLoop=1;jettySize=auto;html=1;exitX=0;exitY=0.5;exitDx=0;exitDy=0;" parent="WIyWlLk6GJQsqaUBKTNV-1" source="zGzyHBWayyrm-eJlsxDx-8" edge="1">
          <mxGeometry relative="1" as="geometry">
            <mxPoint x="-210" y="3260" as="targetPoint" />
            <mxPoint x="-364" y="2763" as="sourcePoint" />
            <Array as="points">
              <mxPoint x="-360" y="2763" />
              <mxPoint x="-360" y="3260" />
            </Array>
          </mxGeometry>
        </mxCell>
        <mxCell id="zGzyHBWayyrm-eJlsxDx-20" value="YES" style="edgeLabel;html=1;align=center;verticalAlign=middle;resizable=0;points=[];" parent="zGzyHBWayyrm-eJlsxDx-13" vertex="1" connectable="0">
          <mxGeometry x="-0.8907" relative="1" as="geometry">
            <mxPoint as="offset" />
          </mxGeometry>
        </mxCell>
        <mxCell id="zGzyHBWayyrm-eJlsxDx-8" value="Is&lt;div&gt;B_FOLLOWER_COUNT&lt;/div&gt;&lt;div&gt;&lt;span style=&quot;background-color: transparent; color: light-dark(rgb(0, 0, 0), rgb(255, 255, 255));&quot;&gt;equal to&lt;/span&gt;&lt;/div&gt;&lt;div&gt;&lt;span style=&quot;background-color: transparent; color: light-dark(rgb(0, 0, 0), rgb(255, 255, 255));&quot;&gt;A_FOLLOWER_COUNT?&lt;/span&gt;&lt;/div&gt;" style="rhombus;whiteSpace=wrap;html=1;" parent="WIyWlLk6GJQsqaUBKTNV-1" vertex="1">
          <mxGeometry x="-314" y="2668" width="230" height="190" as="geometry" />
        </mxCell>
        <mxCell id="qYujgTQVO7epk3fZShRi-13" value="" style="edgeStyle=orthogonalEdgeStyle;rounded=0;orthogonalLoop=1;jettySize=auto;html=1;" parent="WIyWlLk6GJQsqaUBKTNV-1" source="qYujgTQVO7epk3fZShRi-8" target="qYujgTQVO7epk3fZShRi-12" edge="1">
          <mxGeometry relative="1" as="geometry" />
        </mxCell>
        <mxCell id="qYujgTQVO7epk3fZShRi-8" value="Set GAME_IS_IN_PLAY to FALSE" style="rounded=1;whiteSpace=wrap;html=1;" parent="WIyWlLk6GJQsqaUBKTNV-1" vertex="1">
          <mxGeometry x="-513" y="640" width="200" height="90" as="geometry" />
        </mxCell>
        <mxCell id="A01O1QJwSkyAS3Y7OahL-21" style="edgeStyle=orthogonalEdgeStyle;rounded=0;orthogonalLoop=1;jettySize=auto;html=1;" edge="1" parent="WIyWlLk6GJQsqaUBKTNV-1" source="qYujgTQVO7epk3fZShRi-12">
          <mxGeometry relative="1" as="geometry">
            <mxPoint x="-414" y="910.0000000000005" as="targetPoint" />
          </mxGeometry>
        </mxCell>
        <mxCell id="qYujgTQVO7epk3fZShRi-12" value="Print a message to the console saying there are no more brands left to compare." style="rounded=1;whiteSpace=wrap;html=1;" parent="WIyWlLk6GJQsqaUBKTNV-1" vertex="1">
          <mxGeometry x="-514" y="770" width="200" height="90" as="geometry" />
        </mxCell>
        <mxCell id="qYujgTQVO7epk3fZShRi-17" value="" style="edgeStyle=orthogonalEdgeStyle;rounded=0;orthogonalLoop=1;jettySize=auto;html=1;" parent="WIyWlLk6GJQsqaUBKTNV-1" source="qYujgTQVO7epk3fZShRi-15" edge="1">
          <mxGeometry relative="1" as="geometry">
            <mxPoint x="420" y="340" as="targetPoint" />
          </mxGeometry>
        </mxCell>
        <mxCell id="qYujgTQVO7epk3fZShRi-15" value="Append&lt;div&gt;BRAND_A_PROFILE&lt;div&gt;to&lt;/div&gt;&lt;div&gt;BRANDS_ALREADY_SELECTED&lt;/div&gt;&lt;/div&gt;" style="rounded=1;whiteSpace=wrap;html=1;" parent="WIyWlLk6GJQsqaUBKTNV-1" vertex="1">
          <mxGeometry x="320" y="180" width="200" height="90" as="geometry" />
        </mxCell>
        <mxCell id="A01O1QJwSkyAS3Y7OahL-7" value="" style="edgeStyle=orthogonalEdgeStyle;rounded=0;orthogonalLoop=1;jettySize=auto;html=1;" edge="1" parent="WIyWlLk6GJQsqaUBKTNV-1" source="A01O1QJwSkyAS3Y7OahL-0" target="A01O1QJwSkyAS3Y7OahL-6">
          <mxGeometry relative="1" as="geometry" />
        </mxCell>
        <mxCell id="A01O1QJwSkyAS3Y7OahL-0" value="Set&lt;div&gt;ALREADY_SELECTED_COUNT&lt;/div&gt;&lt;div&gt;to number of items in&lt;br&gt;BRANDS_ALREADY_SELECTED&lt;/div&gt;" style="rounded=1;whiteSpace=wrap;html=1;" vertex="1" parent="WIyWlLk6GJQsqaUBKTNV-1">
          <mxGeometry x="320" y="340" width="200" height="110" as="geometry" />
        </mxCell>
        <mxCell id="A01O1QJwSkyAS3Y7OahL-5" value="" style="edgeStyle=orthogonalEdgeStyle;rounded=0;orthogonalLoop=1;jettySize=auto;html=1;" edge="1" parent="WIyWlLk6GJQsqaUBKTNV-1" source="A01O1QJwSkyAS3Y7OahL-3" target="aIQGB1RSID6Y3Y14vBlt-4">
          <mxGeometry relative="1" as="geometry" />
        </mxCell>
        <mxCell id="A01O1QJwSkyAS3Y7OahL-3" value="Set&lt;div&gt;GAME_DATA_COUNT&lt;/div&gt;&lt;div&gt;to number of items in&lt;br&gt;GAME_DATA&lt;/div&gt;" style="rounded=1;whiteSpace=wrap;html=1;" vertex="1" parent="WIyWlLk6GJQsqaUBKTNV-1">
          <mxGeometry x="320" y="-570" width="200" height="110" as="geometry" />
        </mxCell>
        <mxCell id="A01O1QJwSkyAS3Y7OahL-8" style="edgeStyle=orthogonalEdgeStyle;rounded=0;orthogonalLoop=1;jettySize=auto;html=1;entryX=0.5;entryY=0;entryDx=0;entryDy=0;" edge="1" parent="WIyWlLk6GJQsqaUBKTNV-1" source="A01O1QJwSkyAS3Y7OahL-6" target="qYujgTQVO7epk3fZShRi-8">
          <mxGeometry relative="1" as="geometry" />
        </mxCell>
        <mxCell id="A01O1QJwSkyAS3Y7OahL-10" value="YES" style="edgeLabel;html=1;align=center;verticalAlign=middle;resizable=0;points=[];" vertex="1" connectable="0" parent="A01O1QJwSkyAS3Y7OahL-8">
          <mxGeometry x="-0.8991" y="2" relative="1" as="geometry">
            <mxPoint as="offset" />
          </mxGeometry>
        </mxCell>
        <mxCell id="A01O1QJwSkyAS3Y7OahL-13" value="" style="edgeStyle=orthogonalEdgeStyle;rounded=0;orthogonalLoop=1;jettySize=auto;html=1;" edge="1" parent="WIyWlLk6GJQsqaUBKTNV-1" source="A01O1QJwSkyAS3Y7OahL-6" target="aIQGB1RSID6Y3Y14vBlt-18">
          <mxGeometry relative="1" as="geometry" />
        </mxCell>
        <mxCell id="A01O1QJwSkyAS3Y7OahL-15" value="NO" style="edgeLabel;html=1;align=center;verticalAlign=middle;resizable=0;points=[];" vertex="1" connectable="0" parent="A01O1QJwSkyAS3Y7OahL-13">
          <mxGeometry x="-0.1657" y="2" relative="1" as="geometry">
            <mxPoint y="-1" as="offset" />
          </mxGeometry>
        </mxCell>
        <mxCell id="A01O1QJwSkyAS3Y7OahL-6" value="Is&lt;div&gt;ALREADY_SELECTED_COUNT&lt;div&gt;equal to&lt;/div&gt;&lt;div&gt;GAME_DATA_COUNT?&lt;/div&gt;&lt;/div&gt;" style="rhombus;whiteSpace=wrap;html=1;" vertex="1" parent="WIyWlLk6GJQsqaUBKTNV-1">
          <mxGeometry x="305" y="500" width="230" height="160" as="geometry" />
        </mxCell>
        <mxCell id="A01O1QJwSkyAS3Y7OahL-22" value="" style="edgeStyle=orthogonalEdgeStyle;rounded=0;orthogonalLoop=1;jettySize=auto;html=1;" edge="1" parent="WIyWlLk6GJQsqaUBKTNV-1" source="A01O1QJwSkyAS3Y7OahL-11" target="aIQGB1RSID6Y3Y14vBlt-29">
          <mxGeometry relative="1" as="geometry" />
        </mxCell>
        <mxCell id="A01O1QJwSkyAS3Y7OahL-11" value="Append&lt;div&gt;BRAND_B_PROFILE&lt;div&gt;to&lt;/div&gt;&lt;div&gt;BRANDS_ALREADY_SELECTED&lt;/div&gt;&lt;/div&gt;" style="rounded=1;whiteSpace=wrap;html=1;" vertex="1" parent="WIyWlLk6GJQsqaUBKTNV-1">
          <mxGeometry x="320" y="1290" width="200" height="90" as="geometry" />
        </mxCell>
      </root>
    </mxGraphModel>
  </diagram>
  <diagram id="BkhkPl-MFJ-GJb1sgpp-" name="Page-2">
    <mxGraphModel grid="1" page="1" gridSize="10" guides="1" tooltips="1" connect="1" arrows="1" fold="1" pageScale="1" pageWidth="827" pageHeight="1169" math="0" shadow="0">
      <root>
        <mxCell id="0" />
        <mxCell id="1" parent="0" />
      </root>
    </mxGraphModel>
  </diagram>
  <diagram id="dTpLGXHFHK6_yPxcBABb" name="Page-3">
    <mxGraphModel grid="1" page="1" gridSize="10" guides="1" tooltips="1" connect="1" arrows="1" fold="1" pageScale="1" pageWidth="827" pageHeight="1169" math="0" shadow="0">
      <root>
        <mxCell id="0" />
        <mxCell id="1" parent="0" />
      </root>
    </mxGraphModel>
  </diagram>
  <diagram id="-XPsVRO0bqoiu9WWl1qH" name="Page-4">
    <mxGraphModel grid="1" page="1" gridSize="10" guides="1" tooltips="1" connect="1" arrows="1" fold="1" pageScale="1" pageWidth="827" pageHeight="1169" math="0" shadow="0">
      <root>
        <mxCell id="0" />
        <mxCell id="1" parent="0" />
      </root>
    </mxGraphModel>
  </diagram>
</mxfile>
